<svg id="visual" viewBox="0 0 900 600" width="900" height="600" xmlns="http://www.w3.org/2000/svg" xmlns:xlink="http://www.w3.org/1999/xlink" version="1.1"><rect x="0" y="0" width="900" height="600" fill="#001220"></rect><defs><linearGradient id="grad1_0" x1="33.3%" y1="0%" x2="100%" y2="100%"><stop offset="20%" stop-color="#001220" stop-opacity="1"></stop><stop offset="80%" stop-color="#001220" stop-opacity="1"></stop></linearGradient></defs><defs><linearGradient id="grad2_0" x1="0%" y1="0%" x2="66.7%" y2="100%"><stop offset="20%" stop-color="#001220" stop-opacity="1"></stop><stop offset="80%" stop-color="#001220" stop-opacity="1"></stop></linearGradient></defs><g transform="translate(900, 0)"><path d="M0 486.7C-51.8 446.9 -103.6 407.1 -159.2 384.3C-214.8 361.6 -274.3 355.9 -326.7 326.7C-379 297.4 -424.2 244.6 -449.7 186.3C-475.2 127.9 -481 63.9 -486.7 0L0 0Z" fill="#20c997"></path></g><g transform="translate(0, 600)"><path d="M0 -486.7C62.2 -466 124.3 -445.3 170.7 -412.1C217 -378.8 247.5 -333.1 297 -297C346.5 -260.8 414.9 -234.2 449.7 -186.3C484.5 -138.4 485.6 -69.2 486.7 0L0 0Z" fill="#20c997"></path></g></svg>