<svg width="302.87000732421876px" height="120.8px" xmlns="http://www.w3.org/2000/svg" viewBox="98.56499633789062 14.600000000000001 302.87000732421876 120.8" style="background: none;" preserveAspectRatio="xMidYMid"><defs><filter id="editing-lego" x="-100%" y="-100%" width="300%" height="300%"><feFlood flood-color="#000" result="f1"></feFlood><feFlood flood-color="#20c997" result="f2"></feFlood><feMorphology operator="dilate" radius="3" in="SourceAlpha"></feMorphology><feConvolveMatrix order="5,5" divisor="1" result="cm1" kernelMatrix="0 1 1 1 0  1 0 0 0 1  1 0 0 0 1  1 0 0 0 1  0 1 1 1 0"></feConvolveMatrix><feComposite operator="in" in="f1" in2="cm1" result="c1"></feComposite><feMorphology operator="dilate" radius="3"></feMorphology><feConvolveMatrix order="5,5" divisor="1" result="cm2" kernelMatrix="0 1 1 1 0  1 0 0 0 1  1 0 0 0 1  1 0 0 0 1  0 1 1 1 0"></feConvolveMatrix><feComposite operator="in" in="f2" in2="cm2" result="c2"></feComposite><feMerge><feMergeNode in="c2"></feMergeNode><feMergeNode in="c1"></feMergeNode><feMergeNode in="SourceGraphic"></feMergeNode></feMerge></filter></defs><g filter="url(#editing-lego)"><g transform="translate(147.12001252174377, 104.44000053405762)"><path d="M28.42-9.86L28.42-9.86L28.42-9.86Q29.63-8.32 29.63-5.82L29.63-5.82L29.63-5.82Q29.63-2.37 27.07-0.54L27.07-0.54L27.07-0.54Q24.51 1.28 20.48 1.28L20.48 1.28L20.48 1.28Q18.18 1.28 14.66 0.77L14.66 0.77L14.66 0.77Q7.74-0.32 5.63-0.32L5.63-0.32L5.63-0.32Q3.52-0.32 2.69-0.22L2.69-0.22L2.69-0.22Q1.86-0.13 0.51 0L0.51 0L8.38-42.24L35.97-42.24L35.97-42.24Q35.97-38.34 34.08-36.29L34.08-36.29L34.08-36.29Q32.19-34.24 28.48-34.24L28.48-34.24L28.48-34.24Q24.77-34.24 20.99-35.97L20.99-35.97L19.01-24.77L30.40-24.77L30.40-24.77Q30.40-21.38 28.74-19.49L28.74-19.49L28.74-19.49Q27.07-17.60 24.29-17.60L24.29-17.60L24.29-17.60Q21.50-17.60 19.78-18.24L19.78-18.24L19.78-18.24Q18.05-18.88 17.86-19.07L17.86-19.07L15.55-6.98L15.55-6.98Q17.09-6.78 19.97-6.78L19.97-6.78L19.97-6.78Q24.90-6.78 28.42-9.86ZM37.89-10.37L37.89-10.37L37.89-10.37Q35.84-11.84 35.84-14.66L35.84-14.66L35.84-14.66Q35.84-16.19 36.61-17.44L36.61-17.44L36.61-17.44Q37.38-18.69 38.91-18.88L38.91-18.88L51.52-18.88L51.52-18.88Q53.63-18.88 54.27-20.16L54.27-20.16L54.27-20.16Q55.30-19.58 55.74-18.37L55.74-18.37L55.74-18.37Q56.19-17.15 56.19-15.87L56.19-15.87L56.19-15.87Q56.19-14.59 55.20-13.34L55.20-13.34L55.20-13.34Q54.21-12.10 52.74-11.97L52.74-11.97L41.02-11.97L41.02-11.97Q39.68-11.97 39.04-11.55L39.04-11.55L39.04-11.55Q38.40-11.14 37.89-10.37ZM79.74-22.46L79.74-22.46L79.74-22.46Q80.64-24.83 80.64-26.88L80.64-26.88L80.64-26.88Q80.64-30.66 77.57-30.66L77.57-30.66L77.57-30.66Q75.97-30.66 74.66-29.22L74.66-29.22L74.66-29.22Q73.34-27.78 73.34-25.98L73.34-25.98L73.34-25.98Q73.34-24.70 74.37-23.68L74.37-23.68L74.37-23.68Q75.84-22.27 79.62-19.97L79.62-19.97L79.62-19.97Q83.39-17.66 84.83-15.78L84.83-15.78L84.83-15.78Q86.27-13.89 86.27-11.30L86.27-11.30L86.27-11.30Q86.27-8.70 85.02-6.34L85.02-6.34L85.02-6.34Q83.78-3.97 81.54-2.30L81.54-2.30L81.54-2.30Q76.74 1.28 69.06 1.28L69.06 1.28L69.06 1.28Q64.90 1.28 61.70-0.90L61.70-0.90L61.70-0.90Q58.50-3.01 58.50-5.50L58.50-5.50L58.50-5.50Q58.50-8 60.32-9.47L60.32-9.47L60.32-9.47Q62.14-10.94 64.83-10.94L64.83-10.94L64.83-10.94Q67.52-10.94 69.18-9.92L69.18-9.92L69.18-9.92Q68.35-7.81 68.35-6.40L68.35-6.40L68.35-6.40Q68.35-2.18 71.94-2.18L71.94-2.18L71.94-2.18Q73.47-2.18 74.50-3.14L74.50-3.14L74.50-3.14Q75.52-4.10 75.52-5.76L75.52-5.76L75.52-5.76Q75.52-9.02 70.02-12.48L70.02-12.48L70.02-12.48Q65.54-15.42 64.51-16.58L64.51-16.58L64.51-16.58Q62.78-18.62 62.78-21.18L62.78-21.18L62.78-21.18Q62.78-23.74 64-26.18L64-26.18L64-26.18Q65.22-28.61 67.46-30.34L67.46-30.34L67.46-30.34Q72.13-33.92 80.26-33.92L80.26-33.92L80.26-33.92Q84.42-33.92 86.88-32.26L86.88-32.26L86.88-32.26Q89.34-30.59 89.34-27.78L89.34-27.78L89.34-27.78Q89.34-24.96 87.65-23.36L87.65-23.36L87.65-23.36Q85.95-21.76 82.88-21.76L82.88-21.76L82.88-21.76Q80.77-21.76 79.74-22.46ZM123.90-7.10L123.90-7.10L123.90-7.10Q123.90-4.29 126.78-3.46L126.78-3.46L126.78-3.46Q126.08-1.09 123.33 0.19L123.33 0.19L123.33 0.19Q121.02 1.28 118.50 1.28L118.50 1.28L118.50 1.28Q115.97 1.28 114.66 0.61L114.66 0.61L114.66 0.61Q113.34-0.06 112.64-1.15L112.64-1.15L112.64-1.15Q111.49-2.82 111.49-5.95L111.49-5.95L111.49-5.95Q111.49-7.81 112.51-12.93L112.51-12.93L113.41-17.79L113.41-17.79Q114.50-23.36 114.50-25.41L114.50-25.41L114.50-25.41Q114.50-28.99 112.51-28.99L112.51-28.99L112.51-28.99Q110.02-28.99 108.42-25.34L108.42-25.34L108.42-25.34Q107.78-23.94 107.33-21.82L107.33-21.82L102.98 0L90.11 1.28L99.14-44.80L112-46.08L111.49-43.52L111.49-43.52Q109.70-33.66 108.16-30.34L108.16-30.34L108.16-30.34Q111.74-33.92 118.34-33.92L118.34-33.92L118.34-33.92Q125.31-33.92 126.59-29.31L126.59-29.31L126.59-29.31Q127.04-27.84 127.04-26.56L127.04-26.56L127.04-26.56Q127.04-25.28 126.94-24.29L126.94-24.29L126.94-24.29Q126.85-23.30 126.53-21.50L126.53-21.50L125.70-16.90L124.22-9.66L124.22-9.66Q123.90-8.19 123.90-7.10ZM145.92 1.28L145.92 1.28L145.92 1.28Q131.84 1.28 131.84-11.97L131.84-11.97L131.84-11.97Q131.84-21.38 137.02-27.46L137.02-27.46L137.02-27.46Q142.53-33.92 152.06-33.92L152.06-33.92L152.06-33.92Q158.98-33.92 162.50-30.72L162.50-30.72L162.50-30.72Q166.02-27.52 166.02-20.80L166.02-20.80L166.02-20.80Q166.02-10.56 160.51-4.61L160.51-4.61L160.51-4.61Q155.14 1.28 145.92 1.28ZM147.58-26.56L147.58-26.56L147.58-26.56Q146.82-24.83 146.21-22.24L146.21-22.24L146.21-22.24Q145.60-19.65 144.83-15.55L144.83-15.55L144.83-15.55Q144.06-11.46 144.06-6.40L144.06-6.40L144.06-6.40Q144.06-4.74 144.61-3.65L144.61-3.65L144.61-3.65Q145.15-2.56 146.62-2.56L146.62-2.56L146.62-2.56Q148.10-2.56 149.02-3.26L149.02-3.26L149.02-3.26Q149.95-3.97 150.66-5.63L150.66-5.63L150.66-5.63Q151.94-8.58 152.96-14.05L152.96-14.05L152.96-14.05Q153.98-19.52 154.08-21.89L154.08-21.89L154.08-21.89Q154.18-24.26 154.18-26.02L154.18-26.02L154.18-26.02Q154.18-27.78 153.66-28.93L153.66-28.93L153.66-28.93Q153.15-30.08 151.71-30.08L151.71-30.08L151.71-30.08Q150.27-30.08 149.31-29.18L149.31-29.18L149.31-29.18Q148.35-28.29 147.58-26.56ZM199.62-4.38L199.62-4.38L199.62-4.38Q196.93-1.66 193.25-0.19L193.25-0.19L193.25-0.19Q189.57 1.28 185.92 1.28L185.92 1.28L185.92 1.28Q182.27 1.28 180.99 0.64L180.99 0.64L179.01 11.52L166.02 12.80L174.85-32.64L185.28-33.73L184.45-29.31L184.45-29.31Q187.14-33.86 192.70-33.86L192.70-33.86L192.70-33.86Q198.98-33.86 202.30-29.82L202.30-29.82L202.30-29.82Q205.25-26.18 205.25-20.61L205.25-20.61L205.25-20.61Q205.25-15.04 203.78-11.07L203.78-11.07L203.78-11.07Q202.30-7.10 199.62-4.38ZM185.15-22.34L181.76-3.58L181.76-3.58Q183.10-2.43 184.77-2.43L184.77-2.43L184.77-2.43Q186.43-2.43 187.39-3.07L187.39-3.07L187.39-3.07Q188.35-3.71 189.06-4.99L189.06-4.99L189.06-4.99Q190.98-8.45 192.51-18.94L192.51-18.94L192.51-18.94Q192.96-22.02 192.96-25.02L192.96-25.02L192.96-25.02Q192.96-28.03 192.29-28.99L192.29-28.99L192.29-28.99Q191.62-29.95 190.34-29.95L190.34-29.95L190.34-29.95Q186.43-29.95 185.15-22.34L185.15-22.34Z" fill="#fff"></path></g></g><style>text {
  font-size: 64px;
  font-family: Arial Black;
  dominant-baseline: central;
  text-anchor: middle;
}</style></svg>